<?xml version="1.0" encoding="utf-8"?>
<!-- Generator: Adobe Illustrator 16.0.0, SVG Export Plug-In . SVG Version: 6.00 Build 0)  -->
<!DOCTYPE svg PUBLIC "-//W3C//DTD SVG 1.1//EN" "http://www.w3.org/Graphics/SVG/1.1/DTD/svg11.dtd">
<svg version="1.1" xmlns="http://www.w3.org/2000/svg" xmlns:xlink="http://www.w3.org/1999/xlink" x="0px" y="0px" width="60px"
	 height="60px" viewBox="0 0 60 60" enable-background="new 0 0 60 60" xml:space="preserve">
<g id="Layer_1">
</g>
<g id="txt">
	<linearGradient id="SVGID_2_" gradientUnits="userSpaceOnUse" x1="30" y1="58.4282" x2="30" y2="6.3549">
		<stop  offset="0" style="stop-color:#477256"/>
		<stop  offset="1" style="stop-color:#135D6B"/>
	</linearGradient>
	<rect y="0" fill="url(#SVGID_2_)" width="60" height="60"/>
	<g>
		<path fill="#FFFFFF" d="M47.678,49.463c0,1.09-0.877,1.974-1.959,1.974H14.283c-1.084,0-1.961-0.884-1.961-1.974v-27.47
			c0-1.09,0.877-1.974,1.961-1.974h31.436c1.082,0,1.959,0.884,1.959,1.974V49.463z"/>
		<g>
			<g>
				<path fill="none" stroke="#293F54" stroke-width="0.5669" stroke-miterlimit="10" d="M45.875,48.728c0,0.552-0.447,1-1,1H15.313
					c-0.552,0-1-0.448-1-1v-26c0-0.552,0.448-1,1-1h29.563c0.553,0,1,0.448,1,1V48.728z"/>
				
					<line fill="none" stroke="#293F54" stroke-width="0.5669" stroke-miterlimit="10" x1="14.125" y1="28.666" x2="45.813" y2="28.666"/>
				<circle fill="#00B1CC" cx="16.875" cy="25.291" r="0.813"/>
				<circle fill="#00B1CC" cx="20.875" cy="25.291" r="0.813"/>
				<circle fill="#00B1CC" cx="24.875" cy="25.291" r="0.813"/>
				<circle fill="#293F54" cx="30.25" cy="25.291" r="0.5"/>
				<circle fill="#293F54" cx="32.775" cy="25.291" r="0.5"/>
				<circle fill="#293F54" cx="35.301" cy="25.291" r="0.5"/>
				<circle fill="#293F54" cx="37.826" cy="25.291" r="0.5"/>
				<circle fill="#293F54" cx="40.351" cy="25.291" r="0.5"/>
				<circle fill="#293F54" cx="42.875" cy="25.291" r="0.5"/>
			</g>
			
				<path fill="#FFFFFF" stroke="#00B1CC" stroke-width="0.4544" stroke-linecap="round" stroke-linejoin="round" stroke-miterlimit="10" d="
				M42.599,40.093c0,0.552-0.525,1-1.174,1h-21.71c-0.648,0-1.174-0.448-1.174-1v-5.327c0-0.552,0.525-1,1.174-1h21.71
				c0.648,0,1.174,0.448,1.174,1V40.093z"/>
			<path fill="#00B1CC" d="M40.963,39.092c0,0.33-0.441,0.597-0.989,0.597H21.676c-0.547,0-0.99-0.267-0.99-0.597V35.91
				c0-0.33,0.443-0.597,0.99-0.597h18.298c0.548,0,0.989,0.267,0.989,0.597V39.092z"/>
			<path fill="#00B1CC" d="M14.313,38.494"/>
			<path fill="#FFFFFF" d="M37.398,41.312c-0.125-0.472-0.293-1.426,0.445-1.448c0.58-0.017,0.857,0.838,1.013,1.267
				c0.042-0.976,0.047-1.939,0.039-2.915c-0.005-0.569,0.333-2.44,1.031-1.227c0.262,0.456,0.159,1.188,0.094,1.682
				c0.386-0.186,0.855,0.01,1.045,0.386c0.613-0.178,1.165,0.038,1.29,0.695c1.591-0.086,1.013,2.002,0.374,2.778
				c-0.971,1.181-3.068,0.943-4.309,0.275c-0.598-0.322-0.816-0.928-1.064-1.535"/>
			<g>
				<g>
					<g>
						<g>
							<g>
								<g>
									<path fill="#293F54" d="M40.065,40.294c-0.104,0-0.188-0.084-0.188-0.188v-1.425c0-0.104,0.084-0.188,0.188-0.188h0.558
										c0.412,0,0.746,0.334,0.746,0.746c0,0.104-0.084,0.188-0.188,0.188s-0.188-0.084-0.188-0.188
										c0-0.204-0.166-0.371-0.371-0.371h-0.37v1.238C40.253,40.209,40.169,40.294,40.065,40.294z"/>
								</g>
							</g>
						</g>
					</g>
					<g>
						<g>
							<g>
								<g>
									<path fill="#293F54" d="M42.729,45.118h-2.397c-0.104,0-0.188-0.084-0.188-0.188s0.083-0.188,0.188-0.188h2.246
										c0.027-0.11,0.069-0.27,0.128-0.452c0.316-0.983,0.49-2.013,0.518-3.061c0.002-0.104,0.093-0.19,0.192-0.182
										c0.104,0.002,0.186,0.089,0.183,0.192c-0.027,1.083-0.208,2.149-0.535,3.166c-0.101,0.312-0.149,0.558-0.149,0.56
										C42.896,45.055,42.818,45.118,42.729,45.118z"/>
								</g>
							</g>
						</g>
					</g>
					<g>
						<g>
							<g>
								<g>
									<path fill="#293F54" d="M39.147,45.118c-0.09,0-0.169-0.064-0.185-0.155c-0.002-0.01-0.182-0.998-0.822-1.713
										c-0.177-0.197-0.343-0.427-0.497-0.683c-0.357-0.598-0.546-1.29-0.546-2.001c0-0.468,0.381-0.849,0.85-0.849
										c0.349,0,0.667,0.219,0.792,0.544l0.022,0.057v-3.12c0-0.412,0.334-0.746,0.746-0.746c0.41,0,0.745,0.334,0.745,0.746
										v1.482c0,0.104-0.084,0.188-0.188,0.188s-0.188-0.084-0.188-0.188v-1.482c0-0.205-0.166-0.371-0.37-0.371
										c-0.205,0-0.37,0.166-0.37,0.371v4.132c0,0.09-0.065,0.168-0.154,0.184c-0.089,0.017-0.177-0.032-0.209-0.117l-0.385-1.001
										c-0.07-0.182-0.248-0.304-0.442-0.304c-0.262,0-0.475,0.213-0.475,0.474c0,0.644,0.171,1.27,0.493,1.809
										c0.142,0.236,0.294,0.447,0.454,0.625c0.714,0.797,0.904,1.854,0.912,1.898c0.019,0.102-0.05,0.199-0.151,0.217
										C39.17,45.118,39.158,45.118,39.147,45.118z"/>
								</g>
							</g>
						</g>
					</g>
					<g>
						<g>
							<g>
								<g>
									<path fill="#293F54" d="M42.298,41.195c-0.104,0-0.188-0.084-0.188-0.188v-1.351c0-0.204-0.166-0.37-0.371-0.37h-0.37
										v1.237c0,0.104-0.084,0.188-0.188,0.188s-0.188-0.084-0.188-0.188v-1.425c0-0.104,0.084-0.188,0.188-0.188h0.558
										c0.412,0,0.746,0.334,0.746,0.746v1.351C42.485,41.111,42.401,41.195,42.298,41.195z"/>
								</g>
							</g>
						</g>
					</g>
					<g>
						<g>
							<g>
								<g>
									<path fill="#293F54" d="M43.414,41.423c-0.104,0-0.188-0.084-0.188-0.188v-0.868c0-0.204-0.166-0.37-0.37-0.37h-0.559
										c-0.104,0-0.188-0.084-0.188-0.188s0.084-0.188,0.188-0.188h0.559c0.411,0,0.746,0.334,0.746,0.746v0.868
										C43.603,41.339,43.518,41.423,43.414,41.423z"/>
								</g>
							</g>
						</g>
					</g>
				</g>
				<g>
					<g>
						<g>
							<g>
								<path fill="#293F54" d="M43.037,47.586h-4.328c-0.104,0-0.188-0.084-0.188-0.188v-1.718c0-0.104,0.084-0.188,0.188-0.188
									h4.328c0.104,0,0.188,0.084,0.188,0.188v1.718C43.225,47.502,43.141,47.586,43.037,47.586z M38.897,47.211h3.952v-1.342
									h-3.952V47.211z"/>
							</g>
						</g>
					</g>
				</g>
				<g>
					<g>
						<g>
							<g>
								<path fill="#293F54" d="M42.075,46.889c-0.192,0-0.35-0.157-0.35-0.35c0-0.192,0.157-0.349,0.35-0.349
									s0.349,0.157,0.349,0.349C42.424,46.732,42.268,46.889,42.075,46.889z M42.075,46.514c-0.015,0-0.026,0.012-0.026,0.026
									c0,0.029,0.052,0.029,0.052,0C42.101,46.525,42.09,46.514,42.075,46.514z"/>
							</g>
						</g>
					</g>
				</g>
			</g>
			<g>
				<path fill="#FFFFFF" d="M24.619,37.438c0,0.312-0.232,0.506-0.607,0.506H23.73v0.386h-0.324V36.93h0.605
					C24.387,36.93,24.619,37.124,24.619,37.438z M24.293,37.438c0-0.154-0.102-0.244-0.299-0.244H23.73v0.486h0.264
					C24.191,37.68,24.293,37.59,24.293,37.438z"/>
				<path fill="#FFFFFF" d="M25.742,38.33l-0.27-0.39h-0.016h-0.283v0.39h-0.322V36.93h0.605c0.373,0,0.607,0.194,0.607,0.508
					c0,0.21-0.105,0.364-0.287,0.442l0.313,0.45H25.742z M25.439,37.194h-0.266v0.488h0.266c0.197,0,0.297-0.092,0.297-0.244
					C25.736,37.284,25.637,37.194,25.439,37.194z"/>
				<path fill="#FFFFFF" d="M27.404,38.07v0.26H26.32V36.93h1.059v0.26h-0.736v0.304h0.65v0.252h-0.65v0.324H27.404z"/>
				<path fill="#FFFFFF" d="M28.141,37.63c0-0.416,0.324-0.724,0.766-0.724c0.439,0,0.766,0.306,0.766,0.724
					c0,0.418-0.326,0.724-0.766,0.724C28.465,38.354,28.141,38.046,28.141,37.63z M29.344,37.63c0-0.266-0.188-0.448-0.438-0.448
					s-0.438,0.182-0.438,0.448c0,0.266,0.188,0.448,0.438,0.448S29.344,37.896,29.344,37.63z"/>
				<path fill="#FFFFFF" d="M30.809,38.33l-0.27-0.39h-0.016H30.24v0.39h-0.322V36.93h0.605c0.373,0,0.607,0.194,0.607,0.508
					c0,0.21-0.105,0.364-0.287,0.442l0.313,0.45H30.809z M30.506,37.194H30.24v0.488h0.266c0.197,0,0.297-0.092,0.297-0.244
					C30.803,37.284,30.703,37.194,30.506,37.194z"/>
				<path fill="#FFFFFF" d="M31.387,36.93h0.637c0.457,0,0.771,0.276,0.771,0.7s-0.314,0.7-0.771,0.7h-0.637V36.93z M32.006,38.064
					c0.279,0,0.461-0.166,0.461-0.434c0-0.268-0.182-0.434-0.461-0.434h-0.295v0.868H32.006z"/>
				<path fill="#FFFFFF" d="M34.123,38.07v0.26h-1.084V36.93h1.059v0.26h-0.736v0.304h0.65v0.252h-0.65v0.324H34.123z"/>
				<path fill="#FFFFFF" d="M35.273,38.33l-0.271-0.39h-0.016h-0.281v0.39h-0.324V36.93h0.605c0.375,0,0.607,0.194,0.607,0.508
					c0,0.21-0.105,0.364-0.287,0.442l0.314,0.45H35.273z M34.969,37.194h-0.264v0.488h0.264c0.197,0,0.299-0.092,0.299-0.244
					C35.268,37.284,35.166,37.194,34.969,37.194z"/>
				<path fill="#FFFFFF" d="M35.783,38.164c0-0.102,0.08-0.178,0.191-0.178s0.191,0.076,0.191,0.178c0,0.1-0.08,0.182-0.191,0.182
					S35.783,38.264,35.783,38.164z M35.789,36.93h0.371L36.1,37.844h-0.248L35.789,36.93z"/>
			</g>
		</g>
	</g>
	<path fill="#98C020" d="M29.011,7.008c0.309,0,0.575-0.107,0.8-0.324c0.199-0.191,0.304-0.392,0.313-0.6
		c0.009-0.141-0.046-0.281-0.163-0.418c-0.116-0.138-0.263-0.206-0.437-0.206c-0.3,0-0.573,0.1-0.819,0.3
		c-0.244,0.199-0.372,0.407-0.38,0.624C28.308,6.8,28.536,7.008,29.011,7.008z"/>
	<path fill="#FFFFFF" d="M37.515,11.228l-0.14-0.185c-0.095,0.108-0.214,0.225-0.361,0.348c-0.179,0.147-0.302,0.222-0.37,0.222
		c-0.094,0-0.154-0.02-0.178-0.06c-0.024-0.039-0.035-0.11-0.029-0.214c0-0.039,0.03-0.191,0.092-0.455
		c0.062-0.263,0.095-0.464,0.101-0.602c0.004-0.202-0.033-0.358-0.111-0.466C36.414,9.684,36.241,9.627,36,9.646
		c-0.281,0.025-0.574,0.136-0.88,0.333c-0.128,0.084-0.251,0.183-0.37,0.296c0.213-0.89,0.321-1.497,0.326-1.824
		c0.005-0.483-0.194-0.733-0.599-0.748c-0.458-0.016-0.794,0.243-1.006,0.776c0.089-0.04,0.174-0.06,0.251-0.06
		c0.064,0,0.131,0.04,0.2,0.118c0.103,0.124,0.146,0.313,0.125,0.57c-0.014,0.188-0.059,0.591-0.134,1.207
		c-0.016,0.154-0.032,0.296-0.046,0.428c-0.029,0.021-0.057,0.042-0.088,0.063c-0.374,0.249-0.716,0.374-1.022,0.374
		c-0.408,0-0.608-0.153-0.6-0.461c0.017-0.534,0.107-1.233,0.274-2.099h0.887c0.067,0,0.101-0.029,0.101-0.088l0.11-0.536
		c0.018-0.084-0.019-0.125-0.11-0.125h-0.837c0.199-0.949,0.337-1.607,0.411-1.974c0.017-0.066-0.033-0.1-0.148-0.1
		c-0.219,0-0.501,0.092-0.85,0.274c-0.375,0.2-0.58,0.4-0.612,0.6l-0.2,1.199h-0.513c-0.066,0-0.104,0.029-0.112,0.087l-0.112,0.537
		C30.43,8.579,30.468,8.62,30.559,8.62h0.514c-0.126,0.723-0.222,1.32-0.285,1.796c-0.124,0.124-0.266,0.254-0.428,0.39
		c-0.299,0.249-0.507,0.374-0.623,0.374c-0.268,0-0.396-0.179-0.389-0.537c0.125-0.782,0.242-1.427,0.35-1.935
		c0.033-0.3-0.015-0.544-0.144-0.731c-0.129-0.187-0.33-0.269-0.604-0.243c-0.176,0.017-0.441,0.184-0.8,0.5
		c-0.266,0.241-0.533,0.482-0.8,0.724l0.288,0.338c0.232-0.176,0.374-0.263,0.424-0.263c0.15,0,0.225,0.108,0.225,0.324
		c0,0.042-0.081,0.351-0.243,0.924c-0.041,0.146-0.077,0.282-0.108,0.409c-0.375,0.26-0.856,0.531-1.446,0.815
		c0.301-0.991,0.466-1.915,0.499-2.772c0.026-0.69-0.282-1.045-0.923-1.062c-0.774-0.024-1.282,0.408-1.523,1.299
		c0.135-0.058,0.274-0.087,0.418-0.087c0.118,0,0.215,0.047,0.292,0.143c0.075,0.097,0.109,0.207,0.102,0.331
		c-0.009,0.325-0.175,0.673-0.497,1.043c-0.323,0.371-0.61,0.557-0.862,0.557c-0.176,0-0.261-0.15-0.252-0.45
		c0.009-0.158,0.063-0.479,0.162-0.962c0.091-0.457,0.137-0.766,0.137-0.924c0-0.274-0.07-0.497-0.211-0.668
		c-0.142-0.171-0.347-0.244-0.612-0.219c-0.184,0.017-0.454,0.184-0.812,0.5c-0.267,0.241-0.532,0.482-0.8,0.724l0.287,0.338
		c0.233-0.176,0.376-0.263,0.425-0.263c0.158,0,0.233,0.108,0.225,0.324c0,0.018-0.074,0.279-0.225,0.787
		c-0.149,0.508-0.228,0.887-0.236,1.137c-0.017,0.342,0.046,0.604,0.188,0.786c0.174,0.225,0.467,0.32,0.876,0.287
		c0.485-0.033,0.97-0.212,1.455-0.537c0.201-0.133,0.393-0.287,0.576-0.462c-0.066,0.333-0.146,0.616-0.236,0.85
		c-0.9,0.408-1.549,0.758-1.948,1.049c-0.566,0.407-0.87,0.845-0.911,1.311c-0.076,0.808,0.332,1.212,1.223,1.212
		c0.6,0,1.179-0.366,1.736-1.1c0.475-0.623,0.887-1.456,1.236-2.497c0.605-0.3,1.116-0.594,1.535-0.882
		c-0.014,0.097-0.022,0.183-0.024,0.258c-0.009,0.267,0.057,0.482,0.193,0.649c0.138,0.167,0.335,0.25,0.594,0.25
		c0.557,0,1.116-0.242,1.674-0.725c0.162-0.143,0.31-0.292,0.444-0.448c-0.007,0.107-0.01,0.199-0.009,0.273
		c0.009,0.6,0.358,0.899,1.05,0.899c0.565,0,1.174-0.242,1.823-0.725c0.089-0.065,0.17-0.13,0.248-0.194c0,0.003,0,0.007,0,0.01
		c-0.01,0.237,0.045,0.425,0.162,0.563c0.148,0.167,0.389,0.246,0.725,0.237c-0.044-0.104-0.062-0.297-0.051-0.577
		c0.009-0.32,0.121-0.624,0.334-0.909c0.193-0.262,0.373-0.392,0.537-0.392c0.108,0,0.158,0.091,0.148,0.273
		c-0.006,0.118-0.034,0.289-0.086,0.514c-0.051,0.224-0.079,0.417-0.085,0.58c-0.005,0.158,0.034,0.286,0.115,0.384
		c0.081,0.1,0.197,0.148,0.351,0.148c0.33,0,0.66-0.143,0.991-0.429C37.188,11.726,37.377,11.489,37.515,11.228z M23.642,14.04
		c-0.134,0-0.195-0.059-0.187-0.175c0.016-0.217,0.39-0.504,1.122-0.862C24.195,13.694,23.884,14.04,23.642,14.04z"/>
</g>
</svg>
